{"title":"MAKING OF TELUGU MOVIE &lt;a class=&quot;__cf_email__&quot; href=&quot;/cdn-cgi/l/email-protection&quot; data-cfemail=&quot;8bc6cacccacfc3ceced9f5f5e7e4fdeee2f8e7e2edeeede4f9e7e4fdeef9f8cbece6eae2e7a5e8e4e6&quot;&gt;[email protected]&lt;/a&gt;&lt;script cf-hash='f9e31' type=&quot;text/javascript&quot;&gt;/* &lt;![CDATA[ */!function(){try{var t=&quot;currentScript&quot;in document?document.currentScript:function(){for(var t=document.getElementsByTagName(&quot;script&quot;),e=t.length;e--;)if(t[e].getAttribute(&quot;cf-hash&quot;))return t[e]}();if(t&amp;&amp;t.previousSibling){var e,r,n,i,c=t.previousSibling,a=c.getAttribute(&quot;data-cfemail&quot;);if(a){for(e=&quot;&quot;,r=parseInt(a.substr(0,2),16),n=2;a.length-n;n+=2)i=parseInt(a.substr(n,2),16)^r,e+=String.fromCharCode(i);e=document.createTextNode(e),c.parentNode.replaceChild(e,c)}}}catch(u){}}();/* ]]&gt; */&lt;/script&gt;~","uid":5570721,"size":3047985152,"categoryP":"video","categoryS":"movies","magnet":"?xt=urn:btih:4b6930f259bf14809914588cd555c85e28e824ba&amp;dn=MAKING+OF+TELUGU+MOVIE+MAGADHEER%7E%7Eloveislifeforlovers%40gmail.com%7E&amp;tr=udp%3A%2F%2Ftracker.openbittorrent.com%3A80&amp;tr=udp%3A%2F%2Fopen.demonii.com%3A1337&amp;tr=udp%3A%2F%2Ftracker.coppersurfer.tk%3A6969&amp;tr=udp%3A%2F%2Fexodus.desync.com%3A6969","seeders":0,"leechers":0,"uploader":"nikhilsweet","files":17,"time":1274241270,"description":"NOTE:-\n\nITS A VOB FORMAT MAKING.\n\nTHIS FOLDER HAS 3 MAJOR FILES AND THE QUALITIES AND DETAILS OF ALL THE THREE MFILES HAS BEEN MENTION BELOW.\n\n\nComplete name                    : MAKING OF TELUGU MOVIE MAGADHEERA &lt;a class=&quot;__cf_email__&quot; href=&quot;/cdn-cgi/l/email-protection&quot; data-cfemail=&quot;8dcfd4f3f3e1e2fbe8e4fee1e4ebe8ebe2ffe1e2fbe8fffecdeae0ece4e1a3eee2e0&quot;&gt;[email&amp;#160;protected]&lt;/a&gt;&lt;script cf-hash='f9e31' type=&quot;text/javascript&quot;&gt;\n/* &lt;![CDATA[ */!function(){try{var t=&quot;currentScript&quot;in document?document.currentScript:function(){for(var t=document.getElementsByTagName(&quot;script&quot;),e=t.length;e--;)if(t[e].getAttribute(&quot;cf-hash&quot;))return t[e]}();if(t&amp;&amp;t.previousSibling){var e,r,n,i,c=t.previousSibling,a=c.getAttribute(&quot;data-cfemail&quot;);if(a){for(e=&quot;&quot;,r=parseInt(a.substr(0,2),16),n=2;a.length-n;n+=2)i=parseInt(a.substr(n,2),16)^r,e+=String.fromCharCode(i);e=document.createTextNode(e),c.parentNode.replaceChild(e,c)}}}catch(u){}}();/* ]]&gt; */&lt;/script&gt;~~NIKHILVIDEO_TSVTS_03_1.VOB\n\n\nFormat                           : MPEG-PS\nFile size                        : 1 024 MiB\nDuration                         : 19mn 16s\nOverall bit rate                 : 7 428 Kbps\n\nVideo\nID                               : 224 (0xE0)\nFormat                           : MPEG Video\nFormat version                   : Version 2\nFormat profile                   : Main@Main\nFormat settings, BVOP            : Yes\nFormat settings, Matrix          : Default\nDuration                         : 19mn 16s\nBit rate mode                    : Variable\nBit rate                         : 6 685 Kbps\nNominal bit rate                 : 8 200 Kbps\nWidth                            : 720 pixels\nHeight                           : 480 pixels\nDisplay aspect ratio             : 4:3\nFrame rate                       : 29.970 fps\nStandard                         : NTSC\nResolution                       : 8 bits\nColorimetry                      : 4:2:0\nScan type                        : Interlaced\nScan order                       : Bottom Field First\nBits/(Pixel*Frame)               : 0.645\nStream size                      : 921 MiB (90%)\n\nAudio\nID                               : 128 (0x80)\nFormat                           : AC-3\nFormat/Info                      : Audio Coding 3\nDuration                         : 19mn 16s\nBit rate mode                    : Constant\nBit rate                         : 448 Kbps\nChannel(s)                       : 6 channels\nChannel positions                : Front: L C R, Surround: L R, LFE\nSampling rate                    : 48.0 KHz\nStream size                      : 61.7 MiB (6%)\n\n\nGeneral\nComplete name                    : MAKING OF TELUGU MOVIE MAGADHEERA &lt;a class=&quot;__cf_email__&quot; href=&quot;/cdn-cgi/l/email-protection&quot; data-cfemail=&quot;16544f68687a7960737f657a7f70737079647a796073646556717b777f7a3875797b&quot;&gt;[email&amp;#160;protected]&lt;/a&gt;&lt;script cf-hash='f9e31' type=&quot;text/javascript&quot;&gt;\n/* &lt;![CDATA[ */!function(){try{var t=&quot;currentScript&quot;in document?document.currentScript:function(){for(var t=document.getElementsByTagName(&quot;script&quot;),e=t.length;e--;)if(t[e].getAttribute(&quot;cf-hash&quot;))return t[e]}();if(t&amp;&amp;t.previousSibling){var e,r,n,i,c=t.previousSibling,a=c.getAttribute(&quot;data-cfemail&quot;);if(a){for(e=&quot;&quot;,r=parseInt(a.substr(0,2),16),n=2;a.length-n;n+=2)i=parseInt(a.substr(n,2),16)^r,e+=String.fromCharCode(i);e=document.createTextNode(e),c.parentNode.replaceChild(e,c)}}}catch(u){}}();/* ]]&gt; */&lt;/script&gt;~~NIKHILVIDEO_TSVTS_03_2.VOB\n &lt;a href=&quot;\nhttp://www.dhruvplanet.com/wp-content/uploads/2009/06/magadheera-wallpaper.jpg&quot; rel=&quot;nofollow&quot; target=&quot;_NEW&quot;&gt;\nhttp://www.dhruvplanet.com/wp-content/uploads/2009/06/magadheera-wallpaper.jpg&lt;/a&gt;\n\nFormat                           : MPEG-PS\nFile size                        : 1 024 MiB\nDuration                         : 19mn 8s\nOverall bit rate                 : 7 481 Kbps\n\nVideo\nID                               : 224 (0xE0)\nFormat                           : MPEG Video\nFormat version                   : Version 2\nFormat profile                   : Main@Main\nFormat settings, BVOP            : Yes\nFormat settings, Matrix          : Default\nDuration                         : 19mn 7s\nBit rate mode                    : Variable\nBit rate                         : 6 736 Kbps\nNominal bit rate                 : 8 200 Kbps\nWidth                            : 720 pixels\nHeight                           : 480 pixels\nDisplay aspect ratio             : 4:3\nFrame rate                       : 29.970 fps\nStandard                         : NTSC\nResolution                       : 8 bits\nColorimetry                      : 4:2:0\nScan type                        : Interlaced\nScan order                       : Bottom Field First\nBits/(Pixel*Frame)               : 0.650\nStream size                      : 922 MiB (90%)\n &lt;a href=&quot;\nhttp://s.chakpak.com/se_images/3414273_-1_564_none/magadheera-wallpaper.jpg&quot; rel=&quot;nofollow&quot; target=&quot;_NEW&quot;&gt;\nhttp://s.chakpak.com/se_images/3414273_-1_564_none/magadheera-wallpaper.jpg&lt;/a&gt;\n\nAudio\nID                               : 128 (0x80)\nFormat                           : AC-3\nFormat/Info                      : Audio Coding 3\nDuration                         : 19mn 8s\nBit rate mode                    : Constant\nBit rate                         : 448 Kbps\nChannel(s)                       : 6 channels\nChannel positions                : Front: L C R, Surround: L R, LFE\nSampling rate                    : 48.0 KHz\nVideo delay                      : -590ms\nStream size                      : 61.3 MiB (6%)\n\n\n\nGeneral\nComplete name                    : MAKING OF TELUGU MOVIE MAGADHEERA &lt;a class=&quot;__cf_email__&quot; href=&quot;/cdn-cgi/l/email-protection&quot; data-cfemail=&quot;c7859eb9b9aba8b1a2aeb4abaea1a2a1a8b5aba8b1a2b5b487a0aaa6aeabe9a4a8aa&quot;&gt;[email&amp;#160;protected]&lt;/a&gt;&lt;script cf-hash='f9e31' type=&quot;text/javascript&quot;&gt;\n/* &lt;![CDATA[ */!function(){try{var t=&quot;currentScript&quot;in document?document.currentScript:function(){for(var t=document.getElementsByTagName(&quot;script&quot;),e=t.length;e--;)if(t[e].getAttribute(&quot;cf-hash&quot;))return t[e]}();if(t&amp;&amp;t.previousSibling){var e,r,n,i,c=t.previousSibling,a=c.getAttribute(&quot;data-cfemail&quot;);if(a){for(e=&quot;&quot;,r=parseInt(a.substr(0,2),16),n=2;a.length-n;n+=2)i=parseInt(a.substr(n,2),16)^r,e+=String.fromCharCode(i);e=document.createTextNode(e),c.parentNode.replaceChild(e,c)}}}catch(u){}}();/* ]]&gt; */&lt;/script&gt;~~NIKHILVIDEO_TSVTS_03_3.VOB\n &lt;a href=&quot;\nhttp://s.chakpak.com/se_images/5210369_-1_564_none/magadheera-wallpaper.jpg&quot; rel=&quot;nofollow&quot; target=&quot;_NEW&quot;&gt;\nhttp://s.chakpak.com/se_images/5210369_-1_564_none/magadheera-wallpaper.jpg&lt;/a&gt;\n\nFormat                           : MPEG-PS\nFile size                        : 699 MiB\nDuration                         : 13mn 5s\nOverall bit rate                 : 7 467 Kbps\n\nVideo\nID                               : 224 (0xE0)\nFormat                           : MPEG Video\nFormat version                   : Version 2\nFormat profile                   : Main@Main\nFormat settings, BVOP            : Yes\nFormat settings, Matrix          : Default\nDuration                         : 13mn 5s\nBit rate mode                    : Variable\nBit rate                         : 6 723 Kbps\nNominal bit rate                 : 8 200 Kbps\nWidth                            : 720 pixels\nHeight                           : 480 pixels\nDisplay aspect ratio             : 4:3\nFrame rate                       : 29.970 fps\nStandard                         : NTSC\nResolution                       : 8 bits\nColorimetry                      : 4:2:0\nScan type                        : Interlaced\nScan order                       : Bottom Field First\nBits/(Pixel*Frame)               : 0.649\nStream size                      : 629 MiB (90%)\n &lt;a href=&quot;\nhttp://indianewz.com/wp-content/uploads/2009/06/magadheera-1.jpg&quot; rel=&quot;nofollow&quot; target=&quot;_NEW&quot;&gt;\nhttp://indianewz.com/wp-content/uploads/2009/06/magadheera-1.jpg&lt;/a&gt;\n\nAudio\nID                               : 128 (0x80)\nFormat                           : AC-3\nFormat/Info                      : Audio Coding 3\nDuration                         : 13mn 5s\nBit rate mode                    : Constant\nBit rate                         : 448 Kbps\nChannel(s)                       : 6 channels\nChannel positions                : Front: L C R, Surround: L R, LFE\nSampling rate                    : 48.0 KHz\nVideo delay                      : -409ms\nStream size                      : 41.9 MiB (6%)\n\nDISC COVER:- &lt;a href=&quot;\nhttp://i894.photobucket.com/albums/ac145/nikhilsweet/Picture11.jpg&quot; rel=&quot;nofollow&quot; target=&quot;_NEW&quot;&gt;\nhttp://i894.photobucket.com/albums/ac145/nikhilsweet/Picture11.jpg&lt;/a&gt;\n\n\nRIPPED BY N XTRACTED BY -- NIKHIL VARMA\n\n\npls forward ur comment for the further posing as such ones....\n\nTHIS TORRENT IS BROUGHT TO U BY...\n  &lt;a href=&quot;\nhttp://i894.photobucket.com/albums/ac145/nikhilsweet/cooltext432403806.png&quot; rel=&quot;nofollow&quot; target=&quot;_NEW&quot;&gt;\nhttp://i894.photobucket.com/albums/ac145/nikhilsweet/cooltext432403806.png&lt;/a&gt;\n\t\t\n\n\n","torrent":{"xt":"urn:btih:4b6930f259bf14809914588cd555c85e28e824ba","amp;dn":"MAKING+OF+TELUGU+MOVIE+MAGADHEER%7E%7Eloveislifeforlovers%40gmail.com%7E","amp;tr":["udp%3A%2F%2Ftracker.openbittorrent.com%3A80","udp%3A%2F%2Fopen.demonii.com%3A1337","udp%3A%2F%2Ftracker.coppersurfer.tk%3A6969","udp%3A%2F%2Fexodus.desync.com%3A6969"],"infoHash":"4b6930f259bf14809914588cd555c85e28e824ba","infoHashBuffer":{"type":"Buffer","data":[75,105,48,242,89,191,20,128,153,20,88,140,213,85,200,94,40,232,36,186]},"announce":[],"urlList":[]}}